<svg width="31" height="30" viewBox="0 0 31 30" fill="none" xmlns="http://www.w3.org/2000/svg">
<path d="M15.5 0.00195821C7.00977 0.00195821 0.119141 6.88575 0.119141 15.3828C0.119141 22.1777 4.52832 27.9404 10.6396 29.9775C11.4053 30.1211 11.6924 29.6426 11.6924 29.2393C11.6924 28.8701 11.6787 27.6602 11.6719 26.375C7.39258 27.3047 6.49023 24.5635 6.49023 24.5635C5.79297 22.7861 4.78125 22.3145 4.78125 22.3145C3.38672 21.3574 4.88379 21.3779 4.88379 21.3779C6.42871 21.4873 7.24219 22.9639 7.24219 22.9639C8.61621 25.3154 10.8379 24.6318 11.7197 24.2422C11.8564 23.251 12.2529 22.5674 12.6973 22.1846C9.2793 21.7949 5.69043 20.4756 5.69043 14.583C5.69043 12.9014 6.29199 11.5342 7.27637 10.4541C7.11914 10.0645 6.59277 8.50587 7.42676 6.38672C7.42676 6.38672 8.71875 5.97657 11.6582 7.96583C12.8818 7.62403 14.2012 7.45313 15.5068 7.44629C16.8125 7.45313 18.1318 7.62403 19.3623 7.96583C22.2949 5.97657 23.5869 6.38672 23.5869 6.38672C24.4209 8.50587 23.9014 10.0713 23.7373 10.4541C24.7217 11.5273 25.3164 12.9014 25.3164 14.583C25.3164 20.4893 21.7207 21.7881 18.2959 22.1709C18.8496 22.6494 19.3418 23.5859 19.3418 25.0215C19.3418 27.0791 19.3213 28.7334 19.3213 29.2393C19.3213 29.6494 19.5947 30.1279 20.3809 29.9775C26.4785 27.9336 30.8809 22.1709 30.8809 15.376C30.8809 6.88575 23.9971 -0.00487773 15.5 0.00195821Z" fill="white"/>
</svg>
