<svg width="29" height="28" viewBox="0 0 29 28" fill="none" xmlns="http://www.w3.org/2000/svg">
<path d="M28.4 11.9C28.3 11.4 28 10.9 27.6 10.7C27.5 10.6 26.8 10.6 26 10.5C24.7 10.4 24.6 10.4 24.2 10.2C23.6 9.8 23.4 9.4 23.4 8.4C23.4 6.3 22.5 4.4 20.8 2.7C19.6 1.5 18.2 0.6 16.7 0.2C16.3 0.1 15.5 0 12.7 0C8.4 0 7.4 -1.19209e-07 5.9 0.6C3.4 1.7 1.4 4 0.7 6.9C0.6 7.5 0.5 8.4 0.5 13.4C0.5 19.7 0.5 20.7 0.9 21.9C1.9 25 4.6 27.3 7.4 27.8C8.3 28 19.7 28 20.9 27.8C22.9 27.5 24.5 26.7 26 25.2C27.1 24.1 27.8 22.9 28.2 21.3C28.6 20.3 28.5 12.5 28.4 11.9ZM8.3 7.9C8.8 7.4 8.9 7.4 12 7.4C14.7 7.4 14.8 7.4 15.2 7.6C15.8 7.9 16 8.3 16 9C16 9.6 15.8 10 15.2 10.4C14.9 10.6 14.7 10.6 12.1 10.6C10.4 10.6 9.1 10.6 8.9 10.5C7.9 10.2 7.5 8.7 8.3 7.9ZM20.3 20.4L19.4 20.5L14.5 20.6C10.2 20.6 9 20.6 8.8 20.5C8.4 20.3 7.9 19.8 7.9 19.3C7.8 18.8 8.1 18.2 8.4 17.9C8.8 17.5 9 17.5 14.5 17.5C20.1 17.5 20.1 17.5 20.6 18C21.3 18.7 21.2 19.9 20.3 20.4Z" fill="white"/>
</svg>
